HIERARCHY
ROOT reference
{
  OFFSET 0 0 0
  CHANNELS 6 Xposition Yposition Zposition Zrotation Xrotation Yrotation
  JOINT Hips
  {
    OFFSET 349.773 89.4622 219.413
    CHANNELS 3 Zrotation Xrotation Yrotation
    JOINT RightUpLeg
    {
      OFFSET -9.25229 -1.56476 -0.00486621
      CHANNELS 3 Zrotation Xrotation Yrotation
      JOINT RightLeg
      {
        OFFSET 0.0546168 -41.8841 0.068862
        CHANNELS 3 Zrotation Xrotation Yrotation
        JOINT RightFoot
        {
          OFFSET -1.63893 -40.8901 3.53979
          CHANNELS 3 Zrotation Xrotation Yrotation
          End Site
          {
            OFFSET 0 -7.69 17.5
          }
        }
      }
    }
    JOINT LeftUpLeg
    {
      OFFSET 9.30241 -1.63853 -0.0284428
      CHANNELS 3 Zrotation Xrotation Yrotation
      JOINT LeftLeg
      {
        OFFSET 0.0539686 -41.842 -0.0517406
        CHANNELS 3 Zrotation Xrotation Yrotation
        JOINT LeftFoot
        {
          OFFSET 1.12518 -42.5382 -2.5849
          CHANNELS 3 Zrotation Xrotation Yrotation
          End Site
          {
            OFFSET 0 -7.69 17.5
          }
        }
      }
    }
    JOINT Spine
    {
      OFFSET 0.0144198 14.3187 0.0981135
      CHANNELS 3 Zrotation Xrotation Yrotation
      JOINT Spine1
      {
        OFFSET 0.0112165 9.7169 0.0514987
        CHANNELS 3 Zrotation Xrotation Yrotation
        JOINT Spine2
        {
          OFFSET 0.0255827 10.1205 -0.00638435
          CHANNELS 3 Zrotation Xrotation Yrotation
          JOINT Spine3
          {
            OFFSET -0.00190646 9.72552 0.024249
            CHANNELS 3 Zrotation Xrotation Yrotation
            JOINT Neck
            {
              OFFSET -0.136438 10.3681 0.0553958
              CHANNELS 3 Zrotation Xrotation Yrotation
              JOINT Head
              {
                OFFSET 0.0264476 9.5071 0.170402
                CHANNELS 3 Zrotation Xrotation Yrotation
                End Site
                {
                  OFFSET 0 15.95 0
                }
              }
            }
            JOINT RightShoulder
            {
              OFFSET -3.1747 6.92483 0.00547946
              CHANNELS 3 Zrotation Xrotation Yrotation
              JOINT RightArm
              {
                OFFSET -12.7755 -0.0136287 0.0362428
                CHANNELS 3 Zrotation Xrotation Yrotation
                JOINT RightForeArm
                {
                  OFFSET -26.5642 -0.108975 -0.0233747
                  CHANNELS 3 Zrotation Xrotation Yrotation
                  JOINT RightHand
                  {
                    OFFSET -25.905 -0.185223 0.00356295
                    CHANNELS 3 Zrotation Xrotation Yrotation
                    JOINT RightHandThumb1
                    {
                      OFFSET -2.48905 0.190105 3.12053
                      CHANNELS 3 Zrotation Xrotation Yrotation
                      JOINT RightHandThumb2
                      {
                        OFFSET -3.68274 0 0
                        CHANNELS 3 Zrotation Xrotation Yrotation
                        JOINT RightHandThumb3
                        {
                          OFFSET -2.55832 0 0
                          CHANNELS 3 Zrotation Xrotation Yrotation
                          End Site
                          {
                            OFFSET -2.194 0 0
                          }
                        }
                      }
                    }
                    JOINT RightInHandIndex
                    {
                      OFFSET -3.22368 0.508421 1.97842
                      CHANNELS 3 Zrotation Xrotation Yrotation
                      JOINT RightHandIndex1
                      {
                        OFFSET -5.21684 -0.091368 0.999158
                        CHANNELS 3 Zrotation Xrotation Yrotation
                        JOINT RightHandIndex2
                        {
                          OFFSET -3.61937 0 0
                          CHANNELS 3 Zrotation Xrotation Yrotation
                          JOINT RightHandIndex3
                          {
                            OFFSET -2.0521 0 0
                            CHANNELS 3 Zrotation Xrotation Yrotation
                            End Site
                            {
                              OFFSET -1.805 0 0
                            }
                          }
                        }
                      }
                    }
                    JOINT RightInHandMiddle
                    {
                      OFFSET -3.38211 0.517263 0.756737
                      CHANNELS 3 Zrotation Xrotation Yrotation
                      JOINT RightHandMiddle1
                      {
                        OFFSET -5.17411 -0.084 0.313895
                        CHANNELS 3 Zrotation Xrotation Yrotation
                        JOINT RightHandMiddle2
                        {
                          OFFSET -3.94947 0 0
                          CHANNELS 3 Zrotation Xrotation Yrotation
                          JOINT RightHandMiddle3
                          {
                            OFFSET -2.47579 0 0
                            CHANNELS 3 Zrotation Xrotation Yrotation
                            End Site
                            {
                              OFFSET -1.975 0 0
                            }
                          }
                        }
                      }
                    }
                    JOINT RightInHandRing
                    {
                      OFFSET -3.36516 0.537895 -0.128947
                      CHANNELS 3 Zrotation Xrotation Yrotation
                      JOINT RightHandRing1
                      {
                        OFFSET -4.63474 -0.022105 -0.478947
                        CHANNELS 3 Zrotation Xrotation Yrotation
                        JOINT RightHandRing2
                        {
                          OFFSET -3.44238 0 0
                          CHANNELS 3 Zrotation Xrotation Yrotation
                          JOINT RightHandRing3
                          {
                            OFFSET -2.3881 0 0
                            CHANNELS 3 Zrotation Xrotation Yrotation
                            End Site
                            {
                              OFFSET -1.857 0 0
                            }
                          }
                        }
                      }
                    }
                    JOINT RightInHandPinky
                    {
                      OFFSET -3.16105 0.469368 -1.20179
                      CHANNELS 3 Zrotation Xrotation Yrotation
                      JOINT RightHandPinky1
                      {
                        OFFSET -4.14105 -0.022105 -1.09053
                        CHANNELS 3 Zrotation Xrotation Yrotation
                        JOINT RightHandPinky2
                        {
                          OFFSET -2.75653 0 0
                          CHANNELS 3 Zrotation Xrotation Yrotation
                          JOINT RightHandPinky3
                          {
                            OFFSET -1.74189 0 0
                            CHANNELS 3 Zrotation Xrotation Yrotation
                            End Site
                            {
                              OFFSET -1.645 0 0
                            }
                          }
                        }
                      }
                    }
                  }
                }
              }
            }
            JOINT LeftShoulder
            {
              OFFSET 3.23079 6.93624 -0.032633
              CHANNELS 3 Zrotation Xrotation Yrotation
              JOINT LeftArm
              {
                OFFSET 12.8235 -0.00564763 -0.0637926
                CHANNELS 3 Zrotation Xrotation Yrotation
                JOINT LeftForeArm
                {
                  OFFSET 26.4641 -0.00020372 -0.0407631
                  CHANNELS 3 Zrotation Xrotation Yrotation
                  JOINT LeftHand
                  {
                    OFFSET 25.9912 -0.0207868 -0.0178714
                    CHANNELS 3 Zrotation Xrotation Yrotation
                    JOINT LeftHandThumb1
                    {
                      OFFSET 2.48905 0.190105 3.12053
                      CHANNELS 3 Zrotation Xrotation Yrotation
                      JOINT LeftHandThumb2
                      {
                        OFFSET 3.68274 0 0
                        CHANNELS 3 Zrotation Xrotation Yrotation
                        JOINT LeftHandThumb3
                        {
                          OFFSET 2.55832 0 0
                          CHANNELS 3 Zrotation Xrotation Yrotation
                          End Site
                          {
                            OFFSET 2.194 0 0
                          }
                        }
                      }
                    }
                    JOINT LeftInHandIndex
                    {
                      OFFSET 3.22368 0.508421 1.97842
                      CHANNELS 3 Zrotation Xrotation Yrotation
                      JOINT LeftHandIndex1
                      {
                        OFFSET 5.21684 -0.091368 0.999158
                        CHANNELS 3 Zrotation Xrotation Yrotation
                        JOINT LeftHandIndex2
                        {
                          OFFSET 3.61937 0 0
                          CHANNELS 3 Zrotation Xrotation Yrotation
                          JOINT LeftHandIndex3
                          {
                            OFFSET 2.0521 0 0
                            CHANNELS 3 Zrotation Xrotation Yrotation
                            End Site
                            {
                              OFFSET 1.805 0 0
                            }
                          }
                        }
                      }
                    }
                    JOINT LeftInHandMiddle
                    {
                      OFFSET 3.38211 0.517263 0.756737
                      CHANNELS 3 Zrotation Xrotation Yrotation
                      JOINT LeftHandMiddle1
                      {
                        OFFSET 5.17411 -0.084 0.313895
                        CHANNELS 3 Zrotation Xrotation Yrotation
                        JOINT LeftHandMiddle2
                        {
                          OFFSET 3.94947 0 0
                          CHANNELS 3 Zrotation Xrotation Yrotation
                          JOINT LeftHandMiddle3
                          {
                            OFFSET 2.47579 0 0
                            CHANNELS 3 Zrotation Xrotation Yrotation
                            End Site
                            {
                              OFFSET 1.975 0 0
                            }
                          }
                        }
                      }
                    }
                    JOINT LeftInHandRing
                    {
                      OFFSET 3.36516 0.537895 -0.128947
                      CHANNELS 3 Zrotation Xrotation Yrotation
                      JOINT LeftHandRing1
                      {
                        OFFSET 4.63474 -0.022105 -0.478947
                        CHANNELS 3 Zrotation Xrotation Yrotation
                        JOINT LeftHandRing2
                        {
                          OFFSET 3.44238 0 0
                          CHANNELS 3 Zrotation Xrotation Yrotation
                          JOINT LeftHandRing3
                          {
                            OFFSET 2.3881 0 0
                            CHANNELS 3 Zrotation Xrotation Yrotation
                            End Site
                            {
                              OFFSET 1.857 0 0
                            }
                          }
                        }
                      }
                    }
                    JOINT LeftInHandPinky
                    {
                      OFFSET 3.16105 0.469368 -1.20179
                      CHANNELS 3 Zrotation Xrotation Yrotation
                      JOINT LeftHandPinky1
                      {
                        OFFSET 4.14105 -0.022105 -1.09053
                        CHANNELS 3 Zrotation Xrotation Yrotation
                        JOINT LeftHandPinky2
                        {
                          OFFSET 2.75653 0 0
                          CHANNELS 3 Zrotation Xrotation Yrotation
                          JOINT LeftHandPinky3
                          {
                            OFFSET 1.74189 0 0
                            CHANNELS 3 Zrotation Xrotation Yrotation
                            End Site
                            {
                              OFFSET 1.645 0 0
                            }
                          }
                        }
                      }
                    }
                  }
                }
              }
            }
          }
        }
      }
    }
  }
}
MOTION
Frames: 2
Frame Time: 0.00833333
3.000000000000000000e+02 0.000000000000000000e+00 0.000000000000000000e+00 0.000000000000000000e+00 0.000000000000000000e+00 0.000000000000000000e+00 2.854585989561640074e-04 3.440857386055184205e-03 -7.961062216301646385e-03 1.621612289723412675e-02 -3.437911098976154187e-03 1.209187751984068700e-02 -2.621725561036662971e-03 3.103252058177389909e-03 1.012130177872524670e-02 3.118587737676713906e-05 5.809501782509777796e-04 -7.878894234501901406e-03 1.209003942576813463e-02 -2.178827966417981165e-03 8.706232767458873742e-03 -5.422027524926683120e-03 -4.308421493198707347e-03 4.644071692423023048e-03 -1.705567046579429180e-03 9.536490445208814157e-03 1.016053462960302091e-03 -1.113100117287680333e-03 -2.306386211921061975e-03 2.598684024101916186e-03 9.898613441031506584e-06 2.217591982935851133e-04 8.989053272982291010e-05 -1.094423329871156101e-04 -4.152728901809637905e-05 1.319860356490773273e-03 -4.684251188344626103e-06 1.717868873700305828e-05 6.423245116707837845e-06 -5.011379424732899387e-06 -6.663437318581050023e-05 5.463905957261544094e-06 -1.365558189785158298e-03 6.039542829962145191e-03 -3.287157356283897862e-04 -5.025821936663972707e-04 5.289343020439949382e-03 2.854441801044025912e-03 -8.602518554738090503e-03 2.922475027357625613e-03 9.403315760745564397e-03 2.573092677532937134e-02 7.368484562331283766e-03 3.318486473283918659e-02 -2.083216985625362463e-02 -2.288867381645473542e-02 -9.019223091419441285e-03 0.000000000000000000e+00 0.000000000000000000e+00 0.000000000000000000e+00 -1.052623397141126973e-15 -5.799296058059965523e-16 0.000000000000000000e+00 -4.087142527282157960e-16 2.472404054209664479e-15 0.000000000000000000e+00 -1.217206464516535311e-15 1.233426561816097270e-15 5.825527059544163388e-15 0.000000000000000000e+00 0.000000000000000000e+00 0.000000000000000000e+00 0.000000000000000000e+00 -3.806768804309672109e-15 -1.662591838933145190e-14 0.000000000000000000e+00 -3.899002497586717502e-15 -1.311862552007706694e-14 -1.217206464516535311e-15 1.233426561816097270e-15 5.825527059544163388e-15 0.000000000000000000e+00 -2.795247210816114000e-15 -6.160218663464794227e-17 0.000000000000000000e+00 4.807293688711711444e-16 -1.326755264410576100e-14 0.000000000000000000e+00 -3.288788819753558036e-15 -6.889862449875385865e-15 -1.217206464516535311e-15 1.233426561816097270e-15 5.825527059544163388e-15 0.000000000000000000e+00 0.000000000000000000e+00 0.000000000000000000e+00 0.000000000000000000e+00 1.577157191059933122e-16 -9.279184729305134414e-15 0.000000000000000000e+00 -6.822267892215671954e-15 -1.374927687281981547e-14 -1.217206464516535311e-15 1.233426561816097270e-15 5.825527059544163388e-15 0.000000000000000000e+00 0.000000000000000000e+00 0.000000000000000000e+00 0.000000000000000000e+00 3.228796481282359833e-15 -1.088696630755013581e-14 0.000000000000000000e+00 -2.583671158758606100e-15 -4.415323476732312015e-15 -4.153834444980976891e-03 5.102464321008068349e-03 2.377499696314891962e-03 1.846951824222058114e-02 3.651163706052300089e-04 7.752540034341393049e-03 -6.254961133421899078e-02 -1.574513148597369780e-02 -5.722758264616056162e-02 5.152922084421316176e-03 3.078420373337087922e-03 3.006532580821745862e-03 0.000000000000000000e+00 0.000000000000000000e+00 0.000000000000000000e+00 -1.121408368319210664e-15 1.779224088820113958e-15 0.000000000000000000e+00 -1.486371604478430451e-15 -2.597861473705575598e-15 0.000000000000000000e+00 5.100575773970419486e-15 -2.171913906988517490e-15 -1.002573649660526502e-15 0.000000000000000000e+00 0.000000000000000000e+00 0.000000000000000000e+00 0.000000000000000000e+00 5.638778185208234848e-15 1.121165491753616865e-14 0.000000000000000000e+00 -2.010590302832188482e-16 2.752296200558289749e-16 5.100575773970419486e-15 -2.171913906988517490e-15 -1.002573649660526502e-15 0.000000000000000000e+00 -6.909423488164573040e-16 -3.757524851867479672e-16 0.000000000000000000e+00 2.580926805245473492e-15 2.871650834018580395e-15 0.000000000000000000e+00 1.639488207925149949e-15 -6.798988442961844484e-15 5.100575773970419486e-15 -2.171913906988517490e-15 -1.002573649660526502e-15 0.000000000000000000e+00 0.000000000000000000e+00 0.000000000000000000e+00 0.000000000000000000e+00 -4.958625553818376182e-15 -1.667888984605606778e-15 0.000000000000000000e+00 3.288605152428739524e-15 -4.446680397986940403e-15 5.100575773970419486e-15 -2.171913906988517490e-15 -1.002573649660526502e-15 0.000000000000000000e+00 0.000000000000000000e+00 0.000000000000000000e+00 0.000000000000000000e+00 2.996495534765313973e-15 -7.514486435067026362e-16 0.000000000000000000e+00 -6.421174041794788952e-16 6.469876726862416905e-15
3.000000000000000000e+02 0.000000000000000000e+00 0.000000000000000000e+00 0.000000000000000000e+00 0.000000000000000000e+00 0.000000000000000000e+00 8.135040987863489427e-04 -7.276248049050966331e-04 2.910360937136394818e-03 -2.552385694355771128e-03 1.809264529002634438e-04 -2.034535429015735773e-03 3.026173109830152842e-03 7.749570784317309996e-04 -2.629093824131688122e-03 -4.328860979363699860e-03 5.606995353025088146e-04 -1.782520557320967916e-03 1.923689066627769402e-03 -1.481765441424061705e-03 7.887623888187854718e-04 -9.229411303939397820e-03 -7.606493060515634799e-03 4.360855209364297019e-03 -1.402998626539003106e-03 7.704715804855559805e-03 3.902228655387648655e-04 6.507589773280171054e-04 3.407747128186518833e-04 -1.485987157952799577e-04 1.134171710611871864e-05 6.143740379194656325e-05 1.405361019055876171e-04 2.186357719842275569e-06 -1.003883367268059996e-04 3.266230117183153438e-04 -4.333279484698123909e-06 1.304413626906187526e-05 1.502323793780771821e-05 -4.591627205476511634e-06 -7.372252681269924137e-05 1.422669141612770279e-05 6.959554764883442782e-04 1.089067829959849477e-04 -9.531379094310129781e-04 -7.996729010509631957e-04 -9.407318984267699804e-05 -3.917034754914464935e-03 -1.438021099288951023e-03 4.663576768374589655e-03 3.803121884547780093e-03 1.611918678911765032e-02 7.272242095667633480e-03 2.455146351208595257e-02 -1.533426632394011349e-02 -1.426015811006237262e-02 -5.220739950583776039e-03 0.000000000000000000e+00 0.000000000000000000e+00 0.000000000000000000e+00 5.395051996618791891e-15 1.769593675127157826e-15 0.000000000000000000e+00 2.716544590687024606e-15 3.109173370652892621e-15 0.000000000000000000e+00 -3.119125342833808673e-18 -4.270846574986582259e-16 5.436541725634890115e-16 0.000000000000000000e+00 0.000000000000000000e+00 0.000000000000000000e+00 0.000000000000000000e+00 2.767274238408593154e-15 -8.695623005237506428e-16 0.000000000000000000e+00 -3.456070528555776700e-16 8.286036301102905559e-15 -3.119125342833808673e-18 -4.270846574986582259e-16 5.436541725634890115e-16 0.000000000000000000e+00 -2.350318307636056820e-16 3.600776678698212184e-15 0.000000000000000000e+00 1.192745636529282302e-15 -6.276529115507882469e-17 0.000000000000000000e+00 -3.498531314234283912e-16 3.998737703815407406e-15 -3.119125342833808673e-18 -4.270846574986582259e-16 5.436541725634890115e-16 0.000000000000000000e+00 0.000000000000000000e+00 0.000000000000000000e+00 0.000000000000000000e+00 1.605403455248692132e-15 8.978609664413888803e-16 0.000000000000000000e+00 -2.412019458226467327e-16 6.979869751316877856e-16 -3.119125342833808673e-18 -4.270846574986582259e-16 5.436541725634890115e-16 0.000000000000000000e+00 0.000000000000000000e+00 0.000000000000000000e+00 0.000000000000000000e+00 1.293503162410549719e-15 -1.321791621054697398e-15 0.000000000000000000e+00 -2.803567806129605250e-16 4.306763389535185775e-15 -6.774561005603123558e-04 -3.881052460556043242e-03 1.409381473318873160e-03 -2.971474310924813230e-03 8.035231838993978776e-04 8.449641528155972872e-03 -9.544670940814177496e-02 -5.202485516992675849e-03 -9.364145016375138852e-02 9.939991543737479104e-03 3.631841503910871165e-03 3.367474316902437960e-03 0.000000000000000000e+00 0.000000000000000000e+00 0.000000000000000000e+00 -2.749612087952879270e-15 -4.051117585383006156e-17 0.000000000000000000e+00 -1.482920926747969902e-15 -1.803926333988818743e-15 0.000000000000000000e+00 1.401526743593271198e-15 2.646775241943674145e-16 2.862500187361529901e-17 0.000000000000000000e+00 0.000000000000000000e+00 0.000000000000000000e+00 0.000000000000000000e+00 2.465048665885689573e-15 -8.709217513506741723e-16 0.000000000000000000e+00 1.875854296051262782e-15 -2.167761948183480123e-15 1.401526743593271198e-15 2.646775241943674145e-16 2.862500187361529901e-17 0.000000000000000000e+00 1.437057808117768636e-16 9.058373227830656097e-16 0.000000000000000000e+00 8.181266492457812366e-17 -6.805787820288123257e-16 0.000000000000000000e+00 3.761745606275743235e-16 -6.305386335079717905e-15 1.401526743593271198e-15 2.646775241943674145e-16 2.862500187361529901e-17 0.000000000000000000e+00 0.000000000000000000e+00 0.000000000000000000e+00 0.000000000000000000e+00 2.900434937004845200e-16 -3.690692203612238678e-15 0.000000000000000000e+00 1.438330706104398478e-15 -5.050898320965034450e-15 1.401526743593271198e-15 2.646775241943674145e-16 2.862500187361529901e-17 0.000000000000000000e+00 0.000000000000000000e+00 0.000000000000000000e+00 0.000000000000000000e+00 1.289923399923834536e-15 -3.948063393041894868e-15 0.000000000000000000e+00 3.926526939143439728e-16 -6.292881726088258760e-16
